<svg id="Capa_1" enable-background="new 0 0 511.961 511.961" height="512" viewBox="0 0 511.961 511.961" width="512" xmlns="http://www.w3.org/2000/svg"><g><path d="m511.765 219.282c.467-2.031.185-4.77-1.759-6.865l-56.245-61.009c-2.809-3.045-7.552-3.238-10.599-.431-3.045 2.808-3.238 7.553-.431 10.599l44.645 48.425h-139.123l-110.605-112.055h146.422l34.31 37.217c1.479 1.604 3.495 2.416 5.517 2.416 1.817 0 3.64-.656 5.082-1.985 3.045-2.808 3.238-7.553.431-10.599l-75.593-79.896c-3.775-3.892-9.051-6.123-14.473-6.123h-163.038c-1.345.045-3.616.427-5.338 2.231l-168.815 171.031c-2.518 2.737-3.34 7.6.374 10.891l60.587 53.499v175.872c.061 10.1 8.43 20.551 20.477 20.477h349.442c9.691.33 20.816-8.979 20.483-20.554v-175.97l56.15-53.523c.753-.817 1.683-1.89 2.099-3.648zm-296.945 27.097c-4.142 0-7.5 3.357-7.5 7.5v115.293h-44.685v-144.165l129.354-.003v221.738l-69.669-73.076v-119.787c0-4.143-3.358-7.5-7.5-7.5zm-136.706-21.372h69.521v148.67l-69.521 73.037zm-52.682-15.001 150.874-152.853 150.87 152.849zm313.911-156.03c1.389 0 2.74.571 3.707 1.567l26.581 27.402h-146.789l-28.595-28.97h145.096zm-312.027 171.031h35.798v31.61zm60.786 232.969 70.252-73.805h53.257l70.364 73.805zm218.887 0v-232.972l131.526-.001v227.494c-.926 2.324-.197 4.626-5.483 5.479zm146.526-202.246v-30.728h32.237z"/></g></svg>